<svg xmlns="http://www.w3.org/2000/svg" viewBox="0 0 45.35 34.02"><defs><style>.a{fill:#ead963;}.b{fill:#fff;}</style></defs><title>logo-OK</title><polygon class="a" points="45.35 23.99 35.38 23.99 33.65 7.9 8.22 0 41.45 0 45.35 23.99"/><polygon class="a" points="0 10.03 9.96 10.03 12.94 29.71 37.14 34.02 3.91 34.02 0 10.03"/><path class="b" d="M8.22,0,4,34H37.18L41.45,0ZM19.88,19c0,4.64-1.94,5.71-6,5.71V21.47c2.19,0,2.72-.48,2.72-2.36V9.27h3.27Zm7.21,5.71H21.91v-3.1H27a1,1,0,0,0,1-1.11c0-1.63-6.15-3.27-6.15-7.16a3.84,3.84,0,0,1,3.85-4.11h5.17v2.87H26.47a1.07,1.07,0,0,0-1.15,1.18c0,1.39,6.14,3.51,6.14,6.74C31.46,22.23,30.49,24.75,27.09,24.75Z"/></svg>